<svg width="159" height="74" viewBox="0 0 159 74" fill="none" xmlns="http://www.w3.org/2000/svg">
<path d="M6.4 43C5.26 43 4.15 42.805 3.07 42.415C1.99 42.055 1.06 41.515 0.28 40.795L2.125 37.555C2.725 38.125 3.385 38.56 4.105 38.86C4.825 39.16 5.59 39.31 6.4 39.31C7.45 39.31 8.32 39.04 9.01 38.5C9.7 37.96 10.345 37 10.945 35.62L12.43 32.335L12.88 31.795L22.24 10.15H26.47L14.905 36.385C14.215 38.065 13.435 39.385 12.565 40.345C11.725 41.305 10.795 41.98 9.775 42.37C8.755 42.79 7.63 43 6.4 43ZM12.07 34.765L1.18 10.15H5.68L14.95 31.39L12.07 34.765ZM30.893 34V10.15H48.443V13.93H34.178L35.213 12.94V34H30.893ZM67.4907 34V28.96L67.2657 28.015V19.42C67.2657 17.59 66.7257 16.18 65.6457 15.19C64.5957 14.17 63.0057 13.66 60.8757 13.66C59.4657 13.66 58.0857 13.9 56.7357 14.38C55.3857 14.83 54.2457 15.445 53.3157 16.225L51.5157 12.985C52.7457 11.995 54.2157 11.245 55.9257 10.735C57.6657 10.195 59.4807 9.925 61.3707 9.925C64.6407 9.925 67.1607 10.72 68.9307 12.31C70.7007 13.9 71.5857 16.33 71.5857 19.6V34H67.4907ZM59.6607 34.27C57.8907 34.27 56.3307 33.97 54.9807 33.37C53.6607 32.77 52.6407 31.945 51.9207 30.895C51.2007 29.815 50.8407 28.6 50.8407 27.25C50.8407 25.96 51.1407 24.79 51.7407 23.74C52.3707 22.69 53.3757 21.85 54.7557 21.22C56.1657 20.59 58.0557 20.275 60.4257 20.275H67.9857V23.38H60.6057C58.4457 23.38 56.9907 23.74 56.2407 24.46C55.4907 25.18 55.1157 26.05 55.1157 27.07C55.1157 28.24 55.5807 29.185 56.5107 29.905C57.4407 30.595 58.7307 30.94 60.3807 30.94C62.0007 30.94 63.4107 30.58 64.6107 29.86C65.8407 29.14 66.7257 28.09 67.2657 26.71L68.1207 29.68C67.5507 31.09 66.5457 32.215 65.1057 33.055C63.6657 33.865 61.8507 34.27 59.6607 34.27ZM95.6547 31.975V13.93H85.3047L85.0797 18.52C85.0197 20.02 84.9147 21.475 84.7647 22.885C84.6447 24.265 84.4347 25.54 84.1347 26.71C83.8647 27.88 83.4597 28.84 82.9197 29.59C82.3797 30.34 81.6597 30.805 80.7597 30.985L76.4847 30.22C77.4147 30.25 78.1647 29.95 78.7347 29.32C79.3047 28.66 79.7397 27.76 80.0397 26.62C80.3697 25.48 80.6097 24.19 80.7597 22.75C80.9097 21.28 81.0297 19.765 81.1197 18.205L81.4797 10.15H99.9747V31.975H95.6547ZM75.5397 39.535V30.22H103.62V39.535H99.5697V34H79.6347V39.535H75.5397ZM123.873 34V28.96L123.648 28.015V19.42C123.648 17.59 123.108 16.18 122.028 15.19C120.978 14.17 119.388 13.66 117.258 13.66C115.848 13.66 114.468 13.9 113.118 14.38C111.768 14.83 110.628 15.445 109.698 16.225L107.898 12.985C109.128 11.995 110.598 11.245 112.308 10.735C114.048 10.195 115.863 9.925 117.753 9.925C121.023 9.925 123.543 10.72 125.313 12.31C127.083 13.9 127.968 16.33 127.968 19.6V34H123.873ZM116.043 34.27C114.273 34.27 112.713 33.97 111.363 33.37C110.043 32.77 109.023 31.945 108.303 30.895C107.583 29.815 107.223 28.6 107.223 27.25C107.223 25.96 107.523 24.79 108.123 23.74C108.753 22.69 109.758 21.85 111.138 21.22C112.548 20.59 114.438 20.275 116.808 20.275H124.368V23.38H116.988C114.828 23.38 113.373 23.74 112.623 24.46C111.873 25.18 111.498 26.05 111.498 27.07C111.498 28.24 111.963 29.185 112.893 29.905C113.823 30.595 115.113 30.94 116.763 30.94C118.383 30.94 119.793 30.58 120.993 29.86C122.223 29.14 123.108 28.09 123.648 26.71L124.503 29.68C123.933 31.09 122.928 32.215 121.488 33.055C120.048 33.865 118.233 34.27 116.043 34.27ZM135.747 34V10.15H140.067V27.52L154.692 10.15H158.607V34H154.287V16.63L139.707 34H135.747ZM146.907 7.045C144.717 7.045 142.992 6.52 141.732 5.47C140.502 4.39 139.872 2.845 139.842 0.834998H142.767C142.797 1.975 143.172 2.875 143.892 3.535C144.642 4.195 145.632 4.525 146.862 4.525C148.092 4.525 149.082 4.195 149.832 3.535C150.582 2.875 150.972 1.975 151.002 0.834998H154.017C153.987 2.845 153.342 4.39 152.082 5.47C150.822 6.52 149.097 7.045 146.907 7.045ZM15.58 73.27C13.15 73.27 10.975 72.745 9.055 71.695C7.165 70.645 5.68 69.205 4.6 67.375C3.52 65.545 2.98 63.445 2.98 61.075C2.98 58.705 3.52 56.605 4.6 54.775C5.68 52.945 7.165 51.52 9.055 50.5C10.975 49.45 13.15 48.925 15.58 48.925C17.74 48.925 19.66 49.36 21.34 50.23C23.05 51.07 24.37 52.33 25.3 54.01L22.015 56.125C21.235 54.955 20.275 54.1 19.135 53.56C18.025 52.99 16.825 52.705 15.535 52.705C13.975 52.705 12.58 53.05 11.35 53.74C10.12 54.43 9.145 55.405 8.425 56.665C7.705 57.895 7.345 59.365 7.345 61.075C7.345 62.785 7.705 64.27 8.425 65.53C9.145 66.79 10.12 67.765 11.35 68.455C12.58 69.145 13.975 69.49 15.535 69.49C16.825 69.49 18.025 69.22 19.135 68.68C20.275 68.11 21.235 67.24 22.015 66.07L25.3 68.14C24.37 69.79 23.05 71.065 21.34 71.965C19.66 72.835 17.74 73.27 15.58 73.27ZM26.2299 72.955L26.4999 69.31C26.7099 69.34 26.9049 69.37 27.0849 69.4C27.2649 69.43 27.4299 69.445 27.5799 69.445C28.5399 69.445 29.2899 69.115 29.8299 68.455C30.3999 67.795 30.8199 66.925 31.0899 65.845C31.3599 64.735 31.5549 63.49 31.6749 62.11C31.7949 60.73 31.8849 59.35 31.9449 57.97L32.3499 49.15H50.6649V73H46.3449V51.67L47.3799 52.93H35.1399L36.1299 51.625L35.8149 58.24C35.7249 60.34 35.5599 62.305 35.3199 64.135C35.0799 65.965 34.7049 67.57 34.1949 68.95C33.7149 70.33 33.0399 71.41 32.1699 72.19C31.3299 72.97 30.2349 73.36 28.8849 73.36C28.4949 73.36 28.0749 73.315 27.6249 73.225C27.2049 73.165 26.7399 73.075 26.2299 72.955ZM69.233 73.27C66.833 73.27 64.703 72.745 62.843 71.695C60.983 70.645 59.513 69.205 58.433 67.375C57.353 65.515 56.813 63.415 56.813 61.075C56.813 58.705 57.353 56.605 58.433 54.775C59.513 52.945 60.983 51.52 62.843 50.5C64.703 49.45 66.833 48.925 69.233 48.925C71.603 48.925 73.718 49.45 75.578 50.5C77.468 51.52 78.938 52.945 79.988 54.775C81.068 56.575 81.608 58.675 81.608 61.075C81.608 63.445 81.068 65.545 79.988 67.375C78.938 69.205 77.468 70.645 75.578 71.695C73.718 72.745 71.603 73.27 69.233 73.27ZM69.233 69.49C70.763 69.49 72.128 69.145 73.328 68.455C74.558 67.765 75.518 66.79 76.208 65.53C76.898 64.24 77.243 62.755 77.243 61.075C77.243 59.365 76.898 57.895 76.208 56.665C75.518 55.405 74.558 54.43 73.328 53.74C72.128 53.05 70.763 52.705 69.233 52.705C67.703 52.705 66.338 53.05 65.138 53.74C63.938 54.43 62.978 55.405 62.258 56.665C61.538 57.895 61.178 59.365 61.178 61.075C61.178 62.755 61.538 64.24 62.258 65.53C62.978 66.79 63.938 67.765 65.138 68.455C66.338 69.145 67.703 69.49 69.233 69.49ZM87.8461 73V49.15H98.9161C101.706 49.15 103.896 49.69 105.486 50.77C107.106 51.82 107.916 53.32 107.916 55.27C107.916 57.22 107.151 58.735 105.621 59.815C104.121 60.865 102.126 61.39 99.6361 61.39L100.311 60.22C103.161 60.22 105.276 60.745 106.656 61.795C108.036 62.845 108.726 64.39 108.726 66.43C108.726 68.5 107.946 70.12 106.386 71.29C104.856 72.43 102.501 73 99.3211 73H87.8461ZM92.0761 69.67H99.0061C100.806 69.67 102.156 69.4 103.056 68.86C103.956 68.29 104.406 67.39 104.406 66.16C104.406 64.9 103.986 63.985 103.146 63.415C102.336 62.815 101.046 62.515 99.2761 62.515H92.0761V69.67ZM92.0761 59.41H98.5561C100.206 59.41 101.451 59.11 102.291 58.51C103.161 57.88 103.596 57.01 103.596 55.9C103.596 54.76 103.161 53.905 102.291 53.335C101.451 52.765 100.206 52.48 98.5561 52.48H92.0761V59.41ZM125.703 73.27C123.303 73.27 121.173 72.745 119.313 71.695C117.453 70.645 115.983 69.205 114.903 67.375C113.823 65.515 113.283 63.415 113.283 61.075C113.283 58.705 113.823 56.605 114.903 54.775C115.983 52.945 117.453 51.52 119.313 50.5C121.173 49.45 123.303 48.925 125.703 48.925C128.073 48.925 130.188 49.45 132.048 50.5C133.938 51.52 135.408 52.945 136.458 54.775C137.538 56.575 138.078 58.675 138.078 61.075C138.078 63.445 137.538 65.545 136.458 67.375C135.408 69.205 133.938 70.645 132.048 71.695C130.188 72.745 128.073 73.27 125.703 73.27ZM125.703 69.49C127.233 69.49 128.598 69.145 129.798 68.455C131.028 67.765 131.988 66.79 132.678 65.53C133.368 64.24 133.713 62.755 133.713 61.075C133.713 59.365 133.368 57.895 132.678 56.665C131.988 55.405 131.028 54.43 129.798 53.74C128.598 53.05 127.233 52.705 125.703 52.705C124.173 52.705 122.808 53.05 121.608 53.74C120.408 54.43 119.448 55.405 118.728 56.665C118.008 57.895 117.648 59.365 117.648 61.075C117.648 62.755 118.008 64.24 118.728 65.53C119.448 66.79 120.408 67.765 121.608 68.455C122.808 69.145 124.173 69.49 125.703 69.49Z" fill="white"/>
</svg>
